<svg xmlns="http://www.w3.org/2000/svg" width="1024.000000pt" height="1024.000000pt" viewBox="0 0 1024.000000 1024.000000" preserveAspectRatio="xMidYMid meet"><g transform="translate(0.000000,1024.000000) scale(0.100000,-0.100000)" fill="#000000" stroke="none"><path d="M431 10219 c-30 -5 -87 -25 -126 -44 -182 -87 -287 -255 -288 -460 0 -196 109 -371 285 -456 l48 -23 0 -445 c0 -290 4 -460 11 -486 9 -34 79 -108 457 -489 300 -301 460 -454 487 -467 38 -17 76 -19 653 -19 l612 0 0 -470 c0 -258 -3 -470 -8 -470 -4 0 -135 129 -292 286 -157 157 -299 292 -317 300 -26 11 -120 14 -490 14 l-458 0 -29 61 c-18 41 -51 84 -95 128 -268 267 -712 165 -842 -194 -31 -85 -31 -245 0 -329 29 -82 73 -146 141 -210 160 -147 389 -176 584 -73 82 43 174 137 210 215 l30 62 405 0 406 0 378 -378 377 -377 0 -473 0 -472 -308 0 -307 0 -235 236 c-149 149 -250 243 -275 255 -35 16 -66 19 -241 19 l-200 0 -30 62 c-36 78 -128 172 -210 215 -205 109 -436 74 -599 -91 -142 -143 -189 -336 -126 -518 87 -253 352 -399 605 -333 143 37 273 140 331 262 l30 63 150 0 150 0 240 -241 c132 -133 254 -247 272 -255 26 -11 106 -14 393 -14 l360 0 0 -255 0 -255 -517 0 c-344 0 -531 -4 -558 -11 -33 -9 -91 -61 -345 -314 -291 -290 -306 -303 -325 -288 -11 8 -51 30 -90 49 -193 93 -427 53 -579 -100 -271 -271 -171 -721 188 -852 185 -67 380 -25 527 113 111 105 159 220 159 383 l0 95 293 293 293 292 474 -2 475 -3 3 -423 2 -422 -425 0 c-284 0 -442 -4 -473 -11 -44 -11 -77 -41 -488 -451 l-441 -440 -69 22 c-327 101 -657 -142 -658 -485 0 -285 223 -508 509 -509 208 0 397 129 476 324 34 85 38 236 9 331 l-22 72 404 404 403 403 385 -2 385 -3 5 -287 c5 -270 6 -288 26 -314 54 -72 94 -83 322 -84 l162 0 0 -133 0 -132 -314 -314 -314 -314 -74 21 c-280 84 -561 -71 -643 -353 -24 -81 -17 -238 14 -315 113 -278 432 -405 697 -275 129 63 219 165 265 303 31 91 31 221 0 311 l-22 65 350 350 c237 237 355 363 366 388 12 29 15 78 15 218 l0 180 255 0 255 0 0 -355 c0 -390 1 -399 59 -448 54 -45 86 -48 474 -45 404 3 399 2 454 75 l28 36 3 369 3 368 169 0 169 0 3 -368 3 -369 28 -36 c55 -73 50 -72 454 -75 249 -2 376 1 405 8 29 8 56 26 84 55 l40 44 198 -198 198 -199 -20 -54 c-105 -280 79 -601 382 -665 308 -65 606 180 606 497 0 135 -42 245 -130 343 -132 147 -335 203 -528 145 l-74 -21 -314 314 -314 314 0 170 0 171 88 28 c85 28 260 107 355 162 l48 28 302 -301 c166 -165 313 -307 327 -314 20 -11 112 -15 440 -17 l415 -3 245 -243 c202 -201 252 -246 285 -255 22 -6 123 -11 230 -11 l190 0 32 -63 c98 -188 317 -300 524 -267 342 53 535 420 383 729 -64 131 -198 239 -334 270 -68 16 -199 13 -261 -5 -134 -39 -250 -135 -317 -262 l-33 -62 -147 0 -146 0 -246 244 c-135 134 -255 249 -267 255 -15 8 -151 11 -434 11 l-413 0 -248 247 c-136 136 -248 251 -248 256 0 5 40 51 88 102 48 51 119 137 157 190 l68 96 176 -175 c97 -96 189 -179 204 -185 19 -7 190 -11 501 -11 l473 0 34 23 c19 13 163 153 321 311 196 196 291 285 300 280 7 -4 33 -21 58 -36 144 -91 366 -91 523 -1 76 45 162 137 201 217 101 209 65 427 -99 592 -165 166 -401 202 -608 91 -120 -63 -227 -201 -256 -327 -6 -25 -11 -86 -11 -135 l0 -90 -293 -293 -292 -292 -358 0 -358 0 -179 178 -179 179 30 89 c29 86 75 293 81 364 l3 35 465 5 c256 3 467 7 470 8 2 1 205 202 450 447 l445 445 55 -21 c69 -26 196 -35 272 -20 84 18 171 66 244 134 199 186 213 501 30 704 -224 249 -619 221 -805 -58 -82 -122 -105 -295 -59 -435 l21 -66 -399 -399 -399 -399 -396 0 -396 0 -7 68 c-18 175 -90 410 -181 591 -53 107 -179 306 -209 331 -9 7 -16 16 -16 21 0 5 286 9 654 9 435 0 664 4 683 11 15 5 226 208 468 449 l440 439 60 -21 c183 -62 376 -17 518 123 204 202 204 515 0 718 -101 100 -219 151 -353 151 -226 0 -426 -148 -492 -363 -17 -57 -20 -86 -15 -170 3 -64 12 -120 23 -150 l18 -47 -399 -400 -400 -400 -602 0 c-332 0 -603 2 -603 4 0 3 29 42 63 88 97 128 180 282 243 448 64 166 113 420 114 578 l0 72 443 0 c411 0 445 2 482 19 27 13 236 216 651 632 337 338 618 625 625 639 11 20 15 161 17 746 l3 721 42 19 c119 54 221 170 267 304 31 88 31 218 1 311 -103 324 -487 457 -771 267 -100 -66 -183 -186 -209 -299 -16 -67 -13 -198 5 -260 39 -134 140 -257 262 -318 l62 -31 0 -657 0 -658 -547 -547 -548 -548 -406 0 -407 0 -17 77 c-18 81 -86 287 -110 333 -14 26 -12 28 388 428 l403 402 59 -21 c86 -31 226 -31 316 -1 158 54 270 164 325 321 28 77 32 214 10 296 -45 168 -184 309 -355 359 -67 20 -198 21 -267 2 -279 -74 -442 -372 -355 -644 l24 -74 -364 -364 c-200 -200 -367 -364 -371 -364 -3 0 -38 39 -76 88 -39 48 -93 109 -121 137 -28 27 -51 52 -51 56 0 4 123 131 274 281 151 151 284 290 295 309 20 33 21 46 21 411 l0 378 62 31 c75 38 181 142 220 215 38 71 58 155 58 244 0 305 -275 545 -575 502 -219 -32 -399 -206 -435 -423 -36 -213 72 -430 263 -529 l67 -35 0 -320 0 -320 -265 -265 -265 -265 -57 33 c-97 55 -238 120 -338 154 l-94 31 -3 407 -3 407 -28 36 c-53 69 -42 68 -485 65 l-397 -3 -34 -24 c-68 -49 -71 -63 -71 -463 l0 -358 -170 0 -170 0 0 358 c0 400 -3 414 -71 463 l-34 24 -397 3 c-443 3 -432 4 -485 -65 l-28 -36 -3 -336 -3 -335 -254 254 -255 255 0 150 0 150 58 28 c193 93 309 319 272 535 -37 219 -212 391 -432 423 -211 31 -426 -81 -523 -271 -75 -147 -74 -331 3 -474 39 -73 145 -177 220 -215 l62 -31 0 -208 c1 -152 4 -213 14 -231 7 -13 104 -115 214 -226 111 -111 202 -205 202 -209 0 -3 -156 -6 -348 -6 l-347 0 -233 233 -233 234 22 64 c57 167 10 374 -116 503 -97 101 -200 147 -341 154 -158 7 -269 -33 -380 -140 -107 -102 -154 -217 -154 -373 1 -184 94 -342 260 -437 111 -65 277 -80 399 -39 l64 22 234 -233 233 -233 0 -217 0 -218 -563 0 -562 0 -378 378 -377 378 0 402 0 402 62 31 c79 40 177 134 216 207 46 86 62 154 62 256 -1 243 -163 440 -405 491 -78 16 -114 17 -194 4z m180 -362 c52 -35 79 -82 79 -139 0 -203 -286 -237 -331 -39 -10 42 4 104 32 142 43 60 156 79 220 36z m2716 6 c43 -20 83 -78 90 -131 13 -93 -69 -184 -165 -184 -112 0 -187 89 -168 200 17 105 140 164 243 115z m4264 -6 c52 -35 79 -82 79 -139 0 -174 -221 -237 -312 -90 -48 78 -16 196 63 235 50 25 129 22 170 -6z m2226 -6 c42 -32 67 -85 66 -143 -2 -140 -165 -212 -273 -122 -90 76 -80 204 20 272 47 32 139 28 187 -7z m-7848 -672 c47 -28 68 -56 81 -107 30 -120 -82 -232 -202 -202 -147 38 -176 222 -49 307 45 30 122 31 170 2z m2641 -673 c0 -227 4 -365 11 -383 15 -40 48 -73 94 -94 37 -17 71 -19 405 -19 334 0 368 2 405 19 46 21 79 54 94 94 7 18 11 156 11 383 l0 354 170 0 170 0 0 -370 c0 -289 3 -378 14 -403 16 -40 77 -95 114 -103 613 -132 1072 -590 1204 -1199 29 -135 35 -389 13 -530 -61 -387 -260 -735 -554 -965 -144 -113 -149 -229 -14 -330 88 -66 231 -215 303 -318 120 -170 207 -371 252 -577 25 -120 35 -362 18 -491 -45 -358 -206 -676 -473 -930 -190 -182 -410 -303 -678 -373 -111 -29 -151 -52 -182 -106 -8 -14 -14 -139 -17 -405 l-5 -385 -165 0 -165 0 -5 371 -5 371 -28 36 c-52 68 -43 67 -477 67 -434 0 -425 1 -477 -67 l-28 -36 -5 -371 -5 -371 -165 0 -165 0 -5 365 c-5 342 -6 367 -25 399 -11 19 -33 43 -48 55 -28 21 -38 21 -655 26 l-627 5 -3 2893 -2 2892 607 0 c569 0 611 2 648 19 48 22 69 44 90 94 12 30 15 94 15 387 l0 350 170 0 170 0 0 -354z m4001 161 c53 -35 79 -82 79 -139 0 -103 -67 -172 -164 -172 -176 0 -234 222 -82 315 45 27 124 25 167 -4z m-7987 -1711 c47 -35 66 -74 66 -133 0 -116 -104 -196 -213 -163 -85 25 -139 117 -117 200 13 48 53 98 95 116 47 22 127 13 169 -20z m9190 -510 c47 -35 70 -80 70 -136 0 -127 -131 -207 -244 -148 -62 32 -90 77 -90 145 0 78 26 120 95 158 45 24 124 15 169 -19z m-9223 -1002 c61 -25 99 -82 99 -151 0 -65 -18 -103 -65 -139 -68 -51 -168 -42 -224 21 -79 90 -53 218 53 266 51 23 84 24 137 3z m9195 -343 c106 -48 132 -176 53 -266 -75 -85 -222 -66 -275 37 -23 45 -15 134 16 177 26 37 90 71 135 71 17 0 48 -9 71 -19z m20 -1542 c111 -68 101 -233 -18 -295 -15 -8 -49 -14 -76 -14 -122 0 -200 132 -146 246 41 85 155 116 240 63z m-9195 -336 c49 -29 73 -72 77 -138 3 -50 0 -66 -20 -95 -36 -53 -83 -80 -140 -80 -198 0 -238 270 -49 331 34 11 97 2 132 -18z m0 -1536 c52 -35 79 -82 79 -139 0 -204 -286 -237 -331 -39 -10 43 5 105 33 141 48 62 155 81 219 37z m9188 -338 c46 -28 68 -56 80 -104 27 -106 -51 -209 -158 -209 -101 1 -171 71 -171 171 0 125 143 207 249 142z m-7501 -673 c105 -55 129 -185 49 -270 -77 -82 -217 -64 -267 35 -59 115 18 249 142 249 27 0 61 -6 76 -14z m4959 -12 c45 -34 66 -70 71 -123 6 -63 -9 -101 -58 -144 -43 -40 -94 -52 -149 -37 -147 39 -174 227 -44 307 31 20 48 23 96 20 37 -2 67 -10 84 -23z"></path><path d="M3342 7653 c-18 -9 -45 -32 -60 -51 l-27 -35 -2 -1076 -3 -1076 23 -40 c12 -22 40 -50 62 -62 l40 -23 1257 0 c840 0 1282 4 1334 11 166 23 358 97 507 196 92 61 248 217 308 308 139 210 209 435 209 675 0 584 -416 1076 -994 1175 -76 13 -267 15 -1355 15 -1152 0 -1269 -2 -1299 -17z m2626 -339 c162 -33 306 -109 423 -224 182 -178 268 -397 256 -649 -6 -139 -31 -231 -93 -351 -86 -168 -207 -285 -379 -369 -188 -92 -74 -85 -1407 -89 l-1178 -2 0 850 0 850 1150 0 c1010 0 1160 -2 1228 -16z"></path><path d="M3342 4929 c-28 -14 -51 -36 -67 -64 l-25 -42 2 -1076 c3 -1074 3 -1076 24 -1104 11 -15 36 -38 54 -50 l33 -23 1284 0 c1249 0 1288 1 1384 20 245 50 427 148 605 324 235 234 354 517 354 847 0 508 -330 965 -815 1127 -176 59 -94 56 -1500 59 l-1290 3 -43 -21z m2669 -346 c254 -72 444 -228 554 -456 58 -121 75 -188 82 -327 7 -133 -10 -236 -58 -360 -78 -201 -258 -384 -463 -469 -152 -63 -110 -61 -1381 -61 l-1155 0 0 850 0 851 1173 -3 c1165 -3 1172 -3 1248 -25z"></path></g></svg>