<svg xmlns="http://www.w3.org/2000/svg" width="225.000000pt" height="225.000000pt" viewBox="0 0 225.000000 225.000000" preserveAspectRatio="xMidYMid meet"><metadata>
Created by potrace 1.16, written by Peter Selinger 2001-2019
</metadata><g transform="translate(0.000000,225.000000) scale(0.100000,-0.100000)" fill="#000000" stroke="none"><path d="M217 2236 c-48 -18 -73 -40 -101 -91 -21 -40 -21 -40 -24 -990 -2 -670 1 -965 9 -1003 13 -66 64 -127 118 -142 24 -8 245 -10 672 -8 l635 3 37 25 c22 15 48 46 62 74 23 46 25 61 25 193 l0 143 -77 0 c-43 0 -88 3 -100 6 -18 5 -23 2 -23 -14 0 -11 -7 -23 -16 -26 -9 -3 -264 -6 -569 -6 -454 0 -555 2 -564 14 -8 9 -10 221 -9 777 l3 764 570 0 570 0 3 -79 c3 -75 4 -78 25 -72 12 3 57 6 100 6 l77 0 0 147 c0 172 -14 215 -83 261 l-41 27 -630 2 c-515 2 -638 0 -669 -11z m834 -112 c9 -11 10 -20 2 -32 -9 -15 -34 -17 -169 -20 -178 -3 -204 0 -204 26 0 38 19 42 191 42 140 0 169 -3 180 -16z m-103 -1833 c31 -23 52 -86 41 -125 -13 -46 -62 -86 -105 -86 -73 0 -124 51 -124 124 0 87 116 141 188 87z"></path><path d="M360 1180 l0 -710 505 0 c441 0 506 2 511 15 9 22 -5 82 -22 100 -14 13 -19 13 -54 -5 -22 -11 -53 -20 -70 -20 -89 0 -230 142 -230 233 0 12 9 40 19 61 25 47 19 63 -28 76 -41 11 -84 51 -100 93 -17 45 -14 183 5 223 19 40 60 72 103 80 40 8 44 25 20 79 -33 74 -20 116 55 188 33 32 74 66 90 74 33 17 103 14 153 -8 50 -21 57 -6 61 121 l4 110 -511 0 -511 0 0 -710z"></path><path d="M1474 1709 c-4 -6 -12 -34 -18 -62 -11 -48 -13 -51 -70 -75 l-59 -26 -47 27 c-57 32 -69 30 -132 -32 -55 -52 -59 -76 -24 -134 l23 -38 -25 -63 c-23 -59 -28 -65 -61 -71 -70 -13 -81 -27 -81 -106 0 -76 11 -109 38 -110 9 0 32 -5 50 -12 28 -10 38 -22 57 -71 l24 -58 -25 -39 c-36 -57 -31 -77 29 -137 60 -60 80 -63 136 -26 l39 26 61 -24 c57 -22 60 -25 71 -68 17 -67 22 -70 116 -70 92 0 96 2 109 73 7 35 13 41 62 63 68 30 66 30 111 -1 20 -14 45 -25 55 -25 10 0 43 21 73 46 62 53 67 77 31 137 l-24 39 25 63 c24 61 27 64 65 70 63 11 77 33 77 119 0 87 -8 99 -77 115 -46 12 -49 14 -71 72 l-24 61 26 39 c37 56 33 75 -27 136 -61 60 -80 64 -136 29 l-39 -25 -56 23 c-69 28 -66 25 -77 77 -6 24 -15 49 -21 56 -13 17 -174 18 -184 2z m191 -374 c74 -30 134 -124 135 -211 0 -103 -72 -194 -174 -221 -142 -37 -285 74 -286 220 -1 167 168 277 325 212z"></path><path d="M1515 1248 c-56 -31 -65 -48 -65 -124 0 -68 2 -74 30 -98 38 -32 88 -41 134 -26 l36 12 0 112 c0 111 0 113 -25 124 -32 15 -84 15 -110 0z"></path></g></svg>