<svg xmlns="http://www.w3.org/2000/svg" width="225.000000pt" height="225.000000pt" viewBox="0 0 225.000000 225.000000" preserveAspectRatio="xMidYMid meet"><metadata>
Created by potrace 1.16, written by Peter Selinger 2001-2019
</metadata><g transform="translate(0.000000,225.000000) scale(0.100000,-0.100000)" fill="#000000" stroke="none"><path d="M1520 2239 c-35 -11 -93 -50 -118 -79 -57 -67 -69 -183 -26 -268 87 -175 341 -175 428 0 62 124 12 275 -111 333 -44 21 -128 27 -173 14z"></path><path d="M742 2074 c-41 -28 -30 -68 40 -140 l61 -64 -40 0 c-62 0 -191 -37 -278 -81 -228 -113 -386 -326 -434 -582 l-9 -49 27 25 c32 30 64 47 89 47 14 0 22 12 31 43 28 94 94 200 171 277 113 112 242 179 380 196 l55 6 -57 -59 c-46 -46 -58 -65 -58 -91 0 -36 37 -68 68 -58 29 10 262 251 262 271 0 23 -249 275 -271 275 -8 0 -25 -7 -37 -16z"></path><path d="M1534 1655 c-3 -8 3 -29 14 -47 17 -29 19 -41 11 -93 -7 -47 -5 -70 8 -107 9 -27 20 -48 23 -48 3 0 14 21 23 48 13 37 15 60 8 107 -8 52 -6 64 11 93 29 47 19 62 -42 62 -35 0 -52 -4 -56 -15z"></path><path d="M1303 1646 c-96 -19 -159 -74 -183 -157 -6 -19 -10 -120 -10 -226 0 -191 0 -191 26 -222 l26 -31 427 0 428 0 24 26 c23 25 24 31 27 197 2 95 1 195 -3 223 -8 63 -44 123 -96 156 -41 27 -185 57 -199 41 -4 -4 -42 -100 -83 -213 -100 -275 -94 -275 -196 5 -87 238 -74 224 -188 201z"></path><path d="M378 1229 c-13 -7 -18 -23 -18 -59 0 -77 -36 -99 -95 -60 -52 35 -70 27 -113 -47 -93 -160 -93 -157 -26 -203 49 -32 55 -62 18 -87 -14 -10 -37 -28 -50 -40 -29 -27 -27 -34 45 -156 57 -96 70 -103 129 -67 18 11 39 20 47 20 27 0 45 -31 45 -79 0 -26 5 -52 12 -59 17 -17 239 -17 256 0 7 7 12 33 12 58 0 33 6 52 18 63 24 22 38 21 78 -4 57 -35 72 -25 137 88 65 114 65 119 1 163 -52 35 -52 65 0 100 65 44 65 49 -2 163 -66 113 -80 122 -136 88 -63 -39 -96 -19 -96 59 0 39 -4 52 -19 60 -25 13 -220 13 -243 -1z m183 -304 c41 -22 69 -71 69 -124 0 -37 -6 -49 -40 -83 -39 -39 -42 -40 -96 -36 -72 6 -114 44 -121 110 -12 107 93 181 188 133z"></path><path d="M2145 943 c-11 -13 -38 -30 -59 -37 -37 -13 -41 -18 -56 -74 -49 -179 -186 -344 -354 -426 -77 -38 -174 -66 -227 -66 l-33 0 62 63 c65 66 75 92 44 120 -42 38 -69 24 -194 -101 -98 -98 -118 -123 -118 -148 0 -25 20 -50 123 -152 130 -128 150 -139 187 -102 32 32 24 57 -40 124 -33 35 -60 66 -60 69 0 4 17 7 38 7 95 0 266 64 381 142 107 73 217 212 273 344 30 70 61 201 56 236 l-3 24 -20 -23z"></path></g></svg>