<svg width="220" height="36" viewBox="0 0 220 36" fill="none" xmlns="http://www.w3.org/2000/svg">
<path d="M25.6855 16.7837L14.3534 5.59459C15.0836 4.85242 15.9531 4.26161 16.9121 3.85602C17.871 3.45042 18.9005 3.23799 19.9417 3.23091C20.9828 3.22383 22.0152 3.42223 22.9795 3.81474C23.9439 4.20726 24.8213 4.78618 25.5616 5.51834L31.3229 11.1463L25.6855 16.7837Z" fill="white"/>
<path d="M32.8195 23.8507L38.6666 29.6597C40.1656 31.1549 42.1964 31.9946 44.3136 31.9946C46.4308 31.9946 48.4616 31.1549 49.9606 29.6597L38.4236 18.2609L32.8195 23.8507Z" fill="white"/>
<path d="M49.703 5.64221L25.4281 29.7122L24.2939 30.832L23.8174 31.3086L22.9739 32.0091C20.4475 34.1606 17.2381 35.343 13.9197 35.3449C10.2303 35.3398 6.69345 33.8723 4.08423 31.264C1.47501 28.6557 0.00630316 25.1193 0 21.4299V3.96957C0 2.91677 0.418221 1.9071 1.16266 1.16266C1.9071 0.418223 2.91677 0 3.96956 0C5.02236 0 6.03203 0.418223 6.77647 1.16266C7.52091 1.9071 7.93913 2.91677 7.93913 3.96957V7.38635H10.4934C11.3575 7.4192 12.1761 7.78262 12.78 8.40158C13.384 9.02054 13.7272 9.84777 13.7388 10.7125C13.7504 11.5772 13.4296 12.4133 12.8425 13.0483C12.2554 13.6833 11.4469 14.0685 10.5839 14.1246L7.97249 14.1532V21.4299C7.97249 21.5967 7.97249 21.7635 7.97249 21.9303C8.10663 23.4165 8.79066 24.7991 9.89067 25.8075C10.9907 26.8158 12.4275 27.3773 13.9197 27.3819C15.4313 27.3902 16.8901 26.8268 18.0036 25.8046L18.2181 25.5901L18.4087 25.4043L38.4805 5.56597C39.221 4.83166 40.0994 4.25092 41.065 3.85714C42.0307 3.46335 43.0647 3.26428 44.1076 3.27137C45.1504 3.27845 46.1816 3.49155 47.1419 3.89842C48.1021 4.30529 48.9725 4.8979 49.703 5.64221Z" fill="white"/>
<path d="M49.703 5.64221L25.4281 29.7122L24.294 30.8368C22.8421 32.0628 21.0698 32.8481 19.1862 33.0999C17.3026 33.3518 15.3863 33.0598 13.6632 32.2584C11.9401 31.4569 10.4822 30.1795 9.46123 28.5767C8.44029 26.9739 7.89897 25.1126 7.90111 23.2122C7.90138 22.7821 7.92843 22.3524 7.98212 21.9256C8.11491 23.4114 8.79694 24.7944 9.89494 25.8043C10.9929 26.8142 12.428 27.3784 13.9198 27.3867C15.4314 27.395 16.8902 26.8316 18.0037 25.8094L18.2182 25.5949L18.4088 25.4091L38.4805 5.56597C39.2213 4.83223 40.0999 4.25203 41.0655 3.85861C42.0312 3.46518 43.065 3.2663 44.1077 3.27338C45.1503 3.28047 46.1814 3.49338 47.1416 3.89989C48.1018 4.3064 48.9721 4.89847 49.703 5.64221Z" fill="url(#paint0_linear_2395_279)"/>
<path d="M202.694 27.9901L209.799 18.6742L209.711 21.2095L202.901 12.1294H208.06L212.364 18.0551L210.418 18.114L214.87 12.1294H219.764L212.924 21.1211V18.6447L220 27.9901H214.782L210.271 21.6812L212.187 21.9465L207.706 27.9901H202.694Z" fill="white"/>
<path d="M197.012 27.9905V12.1298H201.611V27.9905H197.012ZM199.312 9.91874C198.467 9.91874 197.779 9.67307 197.248 9.18172C196.717 8.69037 196.452 8.0811 196.452 7.3539C196.452 6.62671 196.717 6.01743 197.248 5.52609C197.779 5.03474 198.467 4.78906 199.312 4.78906C200.157 4.78906 200.845 5.02491 201.375 5.49661C201.906 5.94865 202.171 6.53826 202.171 7.26546C202.171 8.03196 201.906 8.67071 201.375 9.18172C200.864 9.67307 200.177 9.91874 199.312 9.91874Z" fill="white"/>
<path d="M191.866 28.2278C189.999 28.2278 188.544 27.7561 187.503 26.8128C186.461 25.8497 185.94 24.4248 185.94 22.538V8.62305H190.539V22.4791C190.539 23.1473 190.716 23.6681 191.07 24.0416C191.424 24.3953 191.905 24.5722 192.514 24.5722C193.242 24.5722 193.861 24.3757 194.372 23.9826L195.61 27.2255C195.138 27.5596 194.568 27.8151 193.9 27.992C193.251 28.1492 192.573 28.2278 191.866 28.2278ZM183.493 16.0228V12.485H194.49V16.0228H183.493Z" fill="white"/>
<path d="M178.094 27.991V24.8955L177.799 24.2175V18.6751C177.799 17.6924 177.494 16.9259 176.885 16.3756C176.295 15.8253 175.381 15.5501 174.143 15.5501C173.298 15.5501 172.463 15.6877 171.637 15.9628C170.831 16.2183 170.144 16.5721 169.574 17.0241L167.923 13.8107C168.787 13.2015 169.829 12.7298 171.048 12.3956C172.266 12.0615 173.504 11.8945 174.762 11.8945C177.18 11.8945 179.057 12.4644 180.393 13.6044C181.73 14.7443 182.398 16.523 182.398 18.9404V27.991H178.094ZM173.259 28.2269C172.02 28.2269 170.959 28.0205 170.075 27.6078C169.19 27.1754 168.512 26.5956 168.041 25.8684C167.569 25.1412 167.333 24.3256 167.333 23.4215C167.333 22.4781 167.559 21.6526 168.011 20.9451C168.483 20.2376 169.22 19.6873 170.222 19.2942C171.224 18.8814 172.531 18.6751 174.143 18.6751H178.359V21.3578H174.644C173.563 21.3578 172.816 21.5347 172.404 21.8885C172.011 22.2423 171.814 22.6845 171.814 23.2151C171.814 23.8048 172.04 24.2764 172.492 24.6302C172.964 24.9643 173.603 25.1314 174.408 25.1314C175.175 25.1314 175.863 24.9545 176.472 24.6007C177.081 24.2273 177.524 23.6868 177.799 22.9793L178.506 25.1019C178.172 26.1239 177.563 26.9002 176.678 27.4309C175.794 27.9616 174.654 28.2269 173.259 28.2269Z" fill="white"/>
<path d="M159.245 28.2269C157.437 28.2269 155.845 27.8732 154.469 27.1656C153.113 26.4581 152.061 25.495 151.315 24.2765C150.568 23.0383 150.194 21.6331 150.194 20.0607C150.194 18.4688 150.558 17.0635 151.285 15.845C152.032 14.6068 153.044 13.6437 154.322 12.9558C155.599 12.2483 157.044 11.8945 158.655 11.8945C160.208 11.8945 161.603 12.2286 162.842 12.8969C164.099 13.5455 165.092 14.4888 165.819 15.727C166.546 16.9456 166.91 18.4098 166.91 20.1197C166.91 20.2966 166.9 20.503 166.881 20.7388C166.861 20.955 166.841 21.1614 166.822 21.3579H153.938V18.6751H164.404L162.635 19.4711C162.635 18.6457 162.468 17.9283 162.134 17.319C161.8 16.7097 161.338 16.238 160.748 15.9039C160.159 15.5502 159.471 15.3733 158.685 15.3733C157.899 15.3733 157.201 15.5502 156.592 15.9039C156.002 16.238 155.54 16.7196 155.206 17.3485C154.872 17.9578 154.705 18.685 154.705 19.5301V20.2376C154.705 21.1024 154.892 21.8689 155.265 22.5371C155.658 23.1857 156.199 23.6869 156.886 24.0407C157.594 24.3748 158.42 24.5418 159.363 24.5418C160.208 24.5418 160.945 24.4141 161.574 24.1586C162.223 23.9031 162.812 23.5198 163.343 23.0088L165.79 25.6621C165.063 26.4876 164.149 27.1263 163.048 27.5784C161.947 28.0108 160.68 28.2269 159.245 28.2269Z" fill="white"/>
<path d="M140.117 27.9911V12.1304H144.51V16.6115L143.891 15.3143C144.362 14.194 145.119 13.3489 146.161 12.779C147.202 12.1893 148.47 11.8945 149.964 11.8945V16.1398C149.767 16.1201 149.59 16.1103 149.433 16.1103C149.276 16.0906 149.109 16.0808 148.932 16.0808C147.674 16.0808 146.652 16.4444 145.866 17.1716C145.099 17.8792 144.716 18.9896 144.716 20.503V27.9911H140.117Z" fill="white"/>
<path d="M131.544 28.2269C129.835 28.2269 128.311 27.8829 126.975 27.1951C125.638 26.4875 124.587 25.5146 123.82 24.2764C123.074 23.0382 122.7 21.633 122.7 20.0607C122.7 18.4687 123.074 17.0635 123.82 15.8449C124.587 14.6067 125.638 13.6437 126.975 12.9558C128.311 12.2482 129.835 11.8945 131.544 11.8945C133.215 11.8945 134.669 12.2482 135.908 12.9558C137.146 13.6437 138.06 14.6362 138.649 15.9334L135.082 17.8496C134.669 17.1028 134.149 16.5525 133.52 16.1987C132.91 15.8449 132.242 15.668 131.515 15.668C130.729 15.668 130.021 15.8449 129.392 16.1987C128.763 16.5525 128.262 17.0536 127.889 17.7022C127.535 18.3508 127.358 19.1369 127.358 20.0607C127.358 20.9844 127.535 21.7706 127.889 22.4191C128.262 23.0677 128.763 23.5689 129.392 23.9227C130.021 24.2764 130.729 24.4533 131.515 24.4533C132.242 24.4533 132.91 24.2863 133.52 23.9522C134.149 23.5984 134.669 23.0382 135.082 22.2717L138.649 24.2175C138.06 25.495 137.146 26.4875 135.908 27.1951C134.669 27.8829 133.215 28.2269 131.544 28.2269Z" fill="white"/>
<path d="M113.74 12.482C114.998 12.482 116.089 12.7277 117.013 13.219C117.956 13.6907 118.683 14.4179 119.194 15.4006C119.725 16.3637 119.99 17.5626 119.99 18.9973V27.989H118.516V19.1152C118.516 17.3857 118.074 16.0689 117.19 15.1648C116.325 14.2607 115.106 13.8086 113.534 13.8086C112.335 13.8086 111.293 14.0543 110.409 14.5457C109.525 15.037 108.846 15.7249 108.375 16.6093C107.923 17.4938 107.697 18.5551 107.697 19.7933V27.989H106.223V6.11414H107.697V16.8747L107.431 16.403C107.903 15.1844 108.679 14.2312 109.76 13.5433C110.841 12.8358 112.168 12.482 113.74 12.482Z" fill="white"/>
<path d="M97.4109 28.108C95.9172 28.108 94.5807 27.7739 93.4015 27.1057C92.2419 26.4374 91.3182 25.5137 90.6303 24.3345C89.962 23.1552 89.6279 21.8089 89.6279 20.2956C89.6279 18.7626 89.962 17.4065 90.6303 16.2272C91.3182 15.048 92.2419 14.1341 93.4015 13.4855C94.5807 12.8173 95.9172 12.4832 97.4109 12.4832C98.6491 12.4832 99.7694 12.719 100.772 13.1907C101.794 13.6624 102.619 14.3699 103.248 15.3133L102.157 16.1093C101.607 15.3231 100.919 14.7434 100.094 14.3699C99.2682 13.9965 98.3739 13.8098 97.4109 13.8098C96.212 13.8098 95.131 14.0849 94.168 14.6353C93.2246 15.1659 92.4777 15.9226 91.9274 16.9053C91.3968 17.8683 91.1315 18.9984 91.1315 20.2956C91.1315 21.5928 91.3968 22.7327 91.9274 23.7154C92.4777 24.6784 93.2246 25.4351 94.168 25.9854C95.131 26.5161 96.212 26.7814 97.4109 26.7814C98.3739 26.7814 99.2682 26.5947 100.094 26.2213C100.919 25.8478 101.607 25.268 102.157 24.4819L103.248 25.2779C102.619 26.2213 101.794 26.9288 100.772 27.4005C99.7694 27.8722 98.6491 28.108 97.4109 28.108Z" fill="white"/>
<path d="M81.1501 28.1083C79.5974 28.1083 78.2217 27.7742 77.0228 27.1059C75.8435 26.4377 74.91 25.514 74.2221 24.3347C73.5538 23.1555 73.2197 21.8092 73.2197 20.2958C73.2197 18.7628 73.5342 17.4165 74.1631 16.257C74.8117 15.0777 75.6961 14.154 76.8164 13.4857C77.9367 12.8175 79.1945 12.4834 80.59 12.4834C81.9854 12.4834 83.2334 12.8077 84.334 13.4563C85.4543 14.1048 86.3289 15.0188 86.9578 16.198C87.6064 17.3576 87.9307 18.7039 87.9307 20.2369C87.9307 20.2958 87.9209 20.3646 87.9012 20.4432C87.9012 20.5022 87.9012 20.571 87.9012 20.6496H74.3105V19.4999H87.1052L86.5156 20.06C86.5353 18.8611 86.2798 17.79 85.7491 16.8466C85.2381 15.8835 84.5404 15.1367 83.656 14.606C82.7715 14.0557 81.7495 13.7806 80.59 13.7806C79.45 13.7806 78.428 14.0557 77.5239 14.606C76.6395 15.1367 75.9418 15.8835 75.4308 16.8466C74.9198 17.79 74.6643 18.8709 74.6643 20.0895V20.3548C74.6643 21.6126 74.9394 22.7329 75.4898 23.7156C76.0597 24.6787 76.836 25.4353 77.8187 25.9856C78.8014 26.5163 79.9217 26.7816 81.1796 26.7816C82.1623 26.7816 83.0762 26.6047 83.9213 26.251C84.7861 25.8972 85.5133 25.3567 86.1029 24.6295L86.9578 25.6024C86.2896 26.4279 85.4445 27.0568 84.4225 27.4892C83.4201 27.9019 82.3293 28.1083 81.1501 28.1083Z" fill="white"/>
<path d="M69.3592 28.1084C68.0031 28.1084 66.9614 27.735 66.2343 26.9882C65.5267 26.2413 65.1729 25.2193 65.1729 23.9221V9.24066H66.647V23.7747C66.647 24.7574 66.8927 25.5141 67.384 26.0448C67.8754 26.5754 68.5829 26.8408 69.5066 26.8408C70.4697 26.8408 71.2657 26.5558 71.8946 25.9858L72.5137 27.0176C72.1206 27.3911 71.6391 27.6662 71.0691 27.8431C70.5188 28.02 69.9488 28.1084 69.3592 28.1084ZM62.3428 13.8692V12.6015H71.5408V13.8692H62.3428Z" fill="white"/>
<defs>
<linearGradient id="paint0_linear_2395_279" x1="17.0314" y1="34.2491" x2="37.7275" y2="-1.60092" gradientUnits="userSpaceOnUse">
<stop stop-color="white"/>
<stop offset="0.11" stop-color="white"/>
<stop offset="0.25" stop-color="white"/>
<stop offset="0.4" stop-color="white"/>
<stop offset="0.56" stop-color="white"/>
<stop offset="0.74" stop-color="white"/>
<stop offset="1" stop-color="white"/>
</linearGradient>
</defs>
</svg>
